<svg xmlns="http://www.w3.org/2000/svg" width="20" height="20" viewBox="0 0 40 40">
    <path fill="#4A4A4A" fill-rule="nonzero" d="M37.838 7.08c0-2.367-6.746-4.08-17.92-4.08C9.078 3 2 4.597 2 7.08v8.515c0 .428.193.822.58 1.186-.385.364-.58.762-.58 1.192v6.284c0 .427.193.823.58 1.186-.385.364-.58.762-.58 1.191v6.284C2 35.119 7.757 37 19.919 37c11.15 0 17.919-1.65 17.919-4.082v-6.284c0-.43-.195-.828-.581-1.191.388-.364.58-.759.58-1.186v-6.284c0-.43-.194-.828-.58-1.192.388-.363.58-.758.58-1.186V7.083v-.001-.002zm-17.92 11.24c-14.499 0-16.57-2.721-16.57-2.725V8.81c.927.519 5.282 2.352 16.57 2.352 11.29 0 15.645-1.833 16.572-2.352v6.784c0 .004-2.203 2.724-16.571 2.724zm0-13.974c15.154 0 16.563 2.698 16.572 2.736-.01.037-2.356 2.736-16.571 2.736-14.186 0-16.562-2.7-16.571-2.736.01-.038 1.972-2.736 16.57-2.736zM36.49 26.634v6.284c0 .008-2.133 2.736-16.571 2.736-14.5 0-16.572-2.728-16.572-2.736v-6.284c0-.037.082-.197.434-.426.913.425 5.358 2.131 16.138 2.131 10.78 0 15.234-1.71 16.138-2.131.352.23.433.39.433.426zm0-8.661v6.284c0 .003-2.064 2.724-16.571 2.724-14.523 0-16.572-2.721-16.572-2.724v-6.284c0-.037.082-.197.434-.427.913.426 5.22 2.132 16.138 2.132 10.919 0 15.225-1.706 16.138-2.132.352.23.433.39.433.427z"/>
</svg>
